<?xml version="1.0" encoding="UTF-8"?>
<svg id="Layer_1" data-name="Layer 1" xmlns="http://www.w3.org/2000/svg" viewBox="0 0 39.28 39.77">
  <defs>
    <style>
      .cls-1 {
        fill: #66b6da;
      }

      .cls-2 {
        fill: #65b7da;
      }

      .cls-3 {
        fill: none;
      }

      .cls-4 {
        fill: #010101;
      }

      .cls-5 {
        fill: #11173c;
      }
    </style>
  </defs>
  <path class="cls-3" d="M25.8,11.9c-.11-1.13-.5-2.04-1.2-2.74-.82-.81-1.79-1.22-2.91-1.22h-8.57v4.32h12.68v-.35h0Z"/>
  <path class="cls-3" d="M22.28,20.24c1.09,0,2.01-.38,2.77-1.14.66-.66,1.03-1.64,1.12-2.95,0-.21.02-.42.02-.64v-4.71h-13.53v9.44s9.62,0,9.62,0Z"/>
  <path class="cls-3" d="M30.07,16.43c-.12,1.57-.55,2.9-1.3,3.99h2.68c1.09,0,2.01-.38,2.77-1.14s1.14-1.96,1.14-3.59c0-1.52-.44-2.72-1.3-3.59-.87-.87-1.9-1.3-3.1-1.3h-.86v4.71c0,.32,0,.63-.03.92h0Z"/>
  <rect class="cls-3" x="3.75" y="10.79" width="5.15" height="9.62"/>
  <path class="cls-4" d="M22.38,23.33h-9.73v.18h10.22c-.16-.05-.33-.09-.5-.12v-.06h.01Z"/>
  <path class="cls-2" d="M36.54,22.07c.22-.15.43-.32.62-.51,1.41-1.41,2.12-3.37,2.12-5.87s-.71-4.46-2.12-5.87-3.21-2.12-5.38-2.12h-.52v3.1h0c1.2,0,1.93.44,2.8,1.3.87.87,1.3,2.07,1.3,3.59,0,1.63-.38,2.83-1.14,3.59s-1.69,1.14-2.77,1.14h-1.52c-.23.34-.49.67-.79.96-.19.19-.39.35-.62.51.18.15.35.3.52.47.35.35.66.74.92,1.16l1.58.06c.91.14,1.71.54,2.41,1.24.87.87,1.3,2.07,1.3,3.59l.1,7.18h3.82v-7.18c0-2.5-.71-4.46-2.12-5.87-.17-.17-.34-.32-.52-.47h.01Z"/>
  <path class="cls-1" d="M25.01,7.69H0v27.89h3.75v-12.07h3.99v-3.1h-3.99v-9.62h21.27v-3.1h-.01Z"/>
  <path class="cls-5" d="M28.78,20.42c.74-1.09,1.18-2.42,1.3-3.99.02-.3.03-.61.03-.92v-7.99c-.08-2.27-.79-4.07-2.11-5.4-1.41-1.41-3.21-2.12-5.38-2.12h-13.7v6.54h3.75v-3.44h9.13c1.19,0,2.23.44,3.1,1.3.74.74,1.16,1.71,1.27,2.92v8.19c0,.22,0,.43-.02.64-.09,1.31-.46,2.29-1.12,2.95-.76.76-1.69,1.14-2.77,1.14h-9.62v-8.28h-3.75v27.81h3.75v-16.43h9.73v.06c.16.03.33.07.49.12.7.19,1.35.56,1.91,1.12.87.87,1.3,2.07,1.3,3.59l.1,11.54h3.82v-11.54c0-1.88-.4-3.45-1.2-4.71-.26-.42-.57-.81-.93-1.16-.17-.17-.34-.32-.52-.47.22-.15.43-.32.62-.51.3-.3.56-.62.79-.96h.03Z"/>
</svg>