<?xml version="1.0" encoding="UTF-8"?>
<svg id="Layer_1" data-name="Layer 1" xmlns="http://www.w3.org/2000/svg" viewBox="0 0 146.94 39.9">
  <defs>
    <style>
      .cls-1 {
        fill: none;
      }

      .cls-2 {
        fill: #11173c;
      }

      .cls-3 {
        fill: #63b7da;
      }

      .cls-4 {
        fill: #64b6da;
      }
    </style>
  </defs>
  <path class="cls-1" d="M25.8,11.9c-.11-1.13-.5-2.04-1.2-2.74-.82-.81-1.79-1.22-2.91-1.22h-8.57v4.32h12.68v-.35h0Z"/>
  <g>
    <path class="cls-1" d="M22.28,20.24c1.09,0,2.01-.38,2.77-1.14.66-.66,1.03-1.64,1.12-2.95,0-.21.02-.42.02-.64v-4.71h-13.53v9.44h9.62Z"/>
    <path class="cls-1" d="M30.07,16.43c-.12,1.57-.55,2.9-1.3,3.99h2.68c1.09,0,2.01-.38,2.77-1.14s1.14-1.96,1.14-3.59c0-1.52-.44-2.72-1.3-3.59-.87-.87-1.9-1.3-3.1-1.3h-.86v4.71c0,.32,0,.63-.03.92h0Z"/>
    <rect class="cls-1" x="3.75" y="10.79" width="5.15" height="9.62"/>
    <path d="M22.38,23.33h-9.73v.18h10.22c-.16-.05-.33-.09-.5-.12v-.06h0Z"/>
    <path class="cls-3" d="M36.54,22.07c.22-.15.43-.32.62-.51,1.41-1.41,2.12-3.37,2.12-5.87s-.71-4.46-2.12-5.87c-1.41-1.41-3.21-2.12-5.38-2.12h-.52v3.1h0c1.2,0,1.93.44,2.8,1.3.87.87,1.3,2.07,1.3,3.59,0,1.63-.38,2.83-1.14,3.59s-1.69,1.14-2.77,1.14h-1.52c-.23.34-.49.67-.79.96-.19.19-.39.35-.62.51.18.15.35.3.52.47.35.35.66.74.92,1.16l1.58.06c.91.14,1.71.54,2.41,1.24.87.87,1.3,2.07,1.3,3.59l.1,7.18h3.82v-7.18c0-2.5-.71-4.46-2.12-5.87-.17-.17-.34-.32-.52-.47h0Z"/>
    <path class="cls-4" d="M25.01,7.69H0v27.89h3.75v-12.07h3.99v-3.1h-3.99v-9.62h21.27c0-1.3,0-2.51,0-3.1h0Z"/>
    <path class="cls-2" d="M28.78,20.42c.74-1.09,1.18-2.42,1.3-3.99.02-.3.03-.61.03-.92v-7.99c-.08-2.27-.79-4.07-2.11-5.4-1.41-1.41-3.21-2.12-5.38-2.12h-13.7v6.54h3.75v-3.44h9.13c1.19,0,2.23.44,3.1,1.3.74.74,1.16,1.71,1.27,2.92v.38c0,.59,0,1.8,0,3.1v4.71c0,.22,0,.43-.02.64-.09,1.31-.46,2.29-1.12,2.95-.76.76-1.69,1.14-2.77,1.14h-9.62v-8.28h-3.75v27.81h3.75v-16.43h9.73v.06c.16.03.33.07.49.12.7.19,1.35.56,1.91,1.12.87.87,1.3,2.07,1.3,3.59l.1,11.54h3.82v-11.54c0-1.88-.4-3.45-1.2-4.71-.26-.42-.57-.81-.93-1.16-.17-.17-.34-.32-.52-.47.22-.15.43-.32.62-.51.3-.3.56-.62.79-.96h.02Z"/>
    <g>
      <path class="cls-3" d="M50.61,37.54v-3.08h.73v3.08c0,.96.48,1.66,1.44,1.66s1.43-.7,1.43-1.66v-3.08h.73v3.08c0,1.38-.79,2.36-2.17,2.36s-2.17-.97-2.17-2.36h.01Z"/>
      <path class="cls-3" d="M61.3,39.77h-2.37v-5.31h2.28c1.15,0,1.82.5,1.82,1.43,0,.57-.31.97-.79,1.15v.03c.56.15.95.58.95,1.21,0,1-.75,1.49-1.89,1.49h0ZM61.19,35.12h-1.54v1.64h1.53c.66,0,1.08-.32,1.08-.81,0-.58-.41-.82-1.07-.82h0ZM59.65,37.4v1.7h1.66c.63,0,1.12-.28,1.12-.87,0-.54-.5-.83-1.12-.83h-1.66Z"/>
      <path class="cls-3" d="M70.22,37.4h-2.58v1.7h3.02v.66h-3.75v-5.31h3.75v.66h-3.02v1.64h2.58v.65h0Z"/>
      <path class="cls-3" d="M73.93,39.26l3.14-4.14h-3.04v-.66h4.01v.51l-3.08,4.13h3.02v.66h-4.06v-.5h0Z"/>
      <path class="cls-3" d="M85.84,36.23c0,1.19-.81,1.83-2.05,1.83h-1.37v1.71h-.73v-5.31h2.13c1.25,0,2.02.65,2.02,1.77h0ZM83.78,35.12h-1.37v2.28h1.37c.8,0,1.31-.34,1.31-1.15,0-.76-.52-1.12-1.31-1.12h0Z"/>
      <path class="cls-3" d="M90.17,39.77h-.73v-5.31h.73v5.31Z"/>
      <path class="cls-3" d="M97.52,37.4h-2.58v1.7h3.02v.66h-3.75v-5.31h3.75v.66h-3.02v1.64h2.58v.65h0Z"/>
      <path class="cls-3" d="M105.65,39.22s-.57.67-1.77.67c-1.6,0-2.67-1.23-2.67-2.77s1.06-2.78,2.67-2.78c1.2,0,1.77.67,1.77.67l-.43.57s-.5-.55-1.34-.55c-1.13,0-1.92.93-1.92,2.09s.79,2.08,1.92,2.08c.84,0,1.34-.55,1.34-.55l.43.57h0Z"/>
      <path class="cls-3" d="M108.77,39.26l3.14-4.14h-3.04v-.66h4.01v.51l-3.08,4.13h3.02v.66h-4.05v-.5h0Z"/>
      <path class="cls-3" d="M119.82,37.4h-2.58v1.7h3.02v.66h-3.75v-5.31h3.75v.66h-3.02v1.64h2.58v.65h0Z"/>
      <path class="cls-3" d="M128.47,39.77h-.54l-3.23-4.03v4.03h-.73v-5.31h.54l3.22,3.99v-3.99h.73v5.31h.01Z"/>
      <path class="cls-3" d="M133.24,39.77h-.73v-5.31h.73v5.31Z"/>
      <path class="cls-3" d="M141.82,39.77h-.77l-.47-1.14h-2.7l-.47,1.14h-.76l2.23-5.31h.7l2.24,5.31ZM138.14,37.98h2.17l-1.08-2.63-1.09,2.63h0Z"/>
    </g>
    <path class="cls-2" d="M52.82,2.9c.04-.38.38-.73.73-.73h10.13c3.76,0,6.49,3.22,6.49,7.18,0,4.68-2.46,7.71-6.1,8.87l3.15,9.82c.15.5-.08,1-.65,1h-3.64c-.38,0-.73-.15-.84-.61l-2.8-9.9h-3.65l-1.38,9.79c-.04.38-.38.73-.73.73h-3.72c-.38,0-.61-.34-.54-.73l3.57-25.4-.02-.02ZM61.03,14.41c2.42,0,4.03-2.03,4.03-4.45,0-1.73-1.07-3.18-2.49-3.18h-5.26l-1.07,7.64h4.8,0Z"/>
    <path class="cls-2" d="M69.9,28.03l14.43-25.83c.15-.27.35-.42.65-.42h.34c.27,0,.46.19.54.42l7.06,25.83c.15.5-.19,1-.73,1h-3.34c-.57,0-.88-.19-1-.77l-.96-4.26h-9.56l-2.23,4.26c-.19.38-.61.77-1.23.77h-3.53c-.54,0-.73-.5-.46-1h.02ZM85.67,19.86l-1.8-8.37h-.08l-4.18,8.37h6.06,0Z"/>
    <path class="cls-2" d="M93,28.03l14.43-25.83c.15-.27.35-.42.65-.42h.35c.27,0,.46.19.54.42l7.06,25.83c.15.5-.19,1-.73,1h-3.34c-.58,0-.88-.19-1-.77l-.96-4.26h-9.56l-2.23,4.26c-.19.38-.61.77-1.23.77h-3.53c-.54,0-.73-.5-.46-1h.01ZM108.77,19.86l-1.8-8.37h-.08l-4.18,8.37h6.06,0Z"/>
    <path class="cls-2" d="M117.69,3.09c-.08-.54.27-.92.73-.92h3.34c.27,0,.5.27.54.54l1.3,14.54h.15l7.75-15.04c.12-.23.35-.42.65-.42h.61c.31,0,.5.19.54.42l3.11,15.04h.15l5.45-14.54c.11-.27.42-.54.69-.54h3.65c.5,0,.73.38.5.92l-10.13,25.79c-.11.31-.42.54-.69.54h-.58c-.31,0-.5-.19-.54-.42l-3.91-16.62h-.15l-8.52,16.62c-.12.23-.31.42-.65.42h-.54c-.31,0-.54-.23-.58-.54l-2.88-25.79h.01Z"/>
  </g>
</svg>